<svg width="25" height="26" viewBox="0 0 25 26" fill="none" xmlns="http://www.w3.org/2000/svg">
<g id="Group">
<path id="Path" fill-rule="evenodd" clip-rule="evenodd" d="M18.1586 18.5623C19.2453 18.5623 20.1273 17.6831 20.1307 16.5964V16.5964V16.5964C20.13 16.0435 19.9093 15.5136 19.5173 15.1236L18.2105 13.8158V9.93083C18.2102 8.4038 17.603 6.93949 16.5225 5.8604C15.4421 4.7813 13.977 4.17592 12.45 4.17757V4.17757C9.2736 4.17929 6.69937 6.75444 6.6988 9.93083V13.8127L5.39204 15.1205C4.99974 15.5103 4.77866 16.0403 4.77759 16.5933V16.5933V16.5933C4.78102 17.68 5.66294 18.5592 6.74966 18.5592L18.1586 18.5623Z" stroke="white" stroke-opacity="0.5" stroke-width="1.55625" stroke-linecap="round" stroke-linejoin="round"/>
<path id="Path_2" d="M10.9149 21.8224H13.9841" stroke="white" stroke-opacity="0.5" stroke-width="1.55625" stroke-linecap="round" stroke-linejoin="round"/>
</g>
</svg>
