<svg width="20" height="20" viewBox="0 0 20 20" fill="none"
    xmlns="http://www.w3.org/2000/svg">
    <g id="Group 65">
        <path id="Vector" d="M10 19.5833C15.2927 19.5833 19.5833 15.2927 19.5833 9.99999C19.5833 4.70726 15.2927 0.416656 10 0.416656C4.70728 0.416656 0.416672 4.70726 0.416672 9.99999C0.416672 15.2927 4.70728 19.5833 10 19.5833Z" fill="#F7931A"/>
        <path id="Vector_2" d="M14.6112 8.81405C14.7993 7.55864 13.8427 6.88361 12.5358 6.43319L12.9599 4.73215L11.9249 4.4746L11.5116 6.13072C11.2397 6.06244 10.9605 5.99895 10.682 5.93546L11.0983 4.26856L10.0633 4.01041L9.63924 5.71085C9.41403 5.65934 9.19242 5.60903 8.97799 5.55512L8.97919 5.54973L7.55127 5.19335L7.27575 6.29903C7.27575 6.29903 8.04421 6.47512 8.02804 6.4859C8.44731 6.59072 8.52278 6.86804 8.5102 7.08845L8.02744 9.02608C8.05619 9.03327 8.09333 9.04405 8.13525 9.06022L8.02565 9.03327L7.34882 11.7477C7.29731 11.8747 7.16734 12.0658 6.87385 11.9933C6.88463 12.0083 6.12156 11.8058 6.12156 11.8058L5.60765 12.9906L6.95531 13.3266C7.20567 13.3895 7.45124 13.4554 7.69262 13.5171L7.26437 15.2373L8.29877 15.4948L8.72283 13.7938C9.00554 13.8699 9.27986 13.9405 9.5482 14.0076L9.12533 15.7015L10.1603 15.959L10.5886 14.2424C12.3543 14.5766 13.6816 14.4419 14.2404 12.845C14.6909 11.5597 14.2183 10.8176 13.2893 10.3342C13.9661 10.1785 14.4752 9.73345 14.6112 8.81405ZM12.2453 12.1311C11.9261 13.417 9.76083 12.7217 9.05885 12.5474L9.62786 10.2683C10.3298 10.4438 12.5801 10.7906 12.2453 12.1311ZM12.5657 8.79548C12.2741 9.96525 10.4724 9.37048 9.88841 9.22494L10.4035 7.15853C10.9875 7.30408 12.87 7.57541 12.5657 8.79548Z" fill="white"/>
    </g>
</svg>
