<svg width="20" height="20" viewBox="0 0 20 20" fill="none"
    xmlns="http://www.w3.org/2000/svg">
    <g id="Sys-Icons" clip-path="url(#clip0_1_12692)">
        <path id="Vector" fill-rule="evenodd" clip-rule="evenodd" d="M3.59621 3.125C3.28076 1.5 4.54259 0 6.18297 0C7.63407 0 8.83281 1.1875 8.83281 2.625V5.875C9.21136 5.875 9.5899 5.8125 9.96845 5.8125C10.347 5.8125 10.6625 5.8125 11.041 5.875V2.625C11.041 1.1875 12.2397 0 13.6909 0C15.3312 0 16.5931 1.5 16.3407 3.125L15.6467 6.9375C18.1073 8 20 9.875 20 12.1875V13.625C20 15.5625 18.7382 17.1875 16.9085 18.25C15.0789 19.375 12.6814 20 9.96845 20C7.25552 20 4.85804 19.375 3.02839 18.25C1.26183 17.1875 0 15.5625 0 13.625V12.1875C0 9.875 1.82965 8 4.29022 6.9375L3.59621 3.125ZM14.7003 7.4375L15.5205 2.9375C15.7098 1.8125 14.8896 0.75 13.6909 0.75C12.6814 0.75 11.8612 1.5625 11.8612 2.5625V6.6875C11.6088 6.625 11.2934 6.625 11.041 6.625C10.6625 6.625 10.347 6.5625 9.96845 6.5625C9.5899 6.5625 9.21136 6.5625 8.83281 6.625C8.58044 6.625 8.26498 6.6875 8.01262 6.6875V2.625C8.01262 1.625 7.19243 0.8125 6.18297 0.8125C5.04732 0.8125 4.16404 1.875 4.4164 3L5.23659 7.5C2.58675 8.5 0.820189 10.25 0.820189 12.25V13.6875C0.820189 16.75 4.92114 19.25 9.96845 19.25C15.0158 19.25 19.1167 16.75 19.1167 13.6875V12.25C19.1798 10.1875 17.4132 8.4375 14.7003 7.4375Z" fill="#633001"/>
        <path id="Vector_2" d="M19.1798 13.625C19.1798 16.6875 15.0789 19.1875 10.0316 19.1875C4.98423 19.1875 0.883286 16.6875 0.883286 13.625V12.1875H19.2429V13.625H19.1798Z" fill="#FEDC90"/>
        <path id="Vector_3" fill-rule="evenodd" clip-rule="evenodd" d="M4.41641 3C4.16404 1.875 5.04732 0.8125 6.18297 0.8125C7.19243 0.8125 8.01262 1.625 8.01262 2.625V6.75C8.64354 6.6875 9.27445 6.625 9.96846 6.625C10.5994 6.625 11.2303 6.6875 11.8612 6.75V2.625C11.8612 1.625 12.6814 0.8125 13.6909 0.8125C14.8265 0.8125 15.7098 1.875 15.5205 3L14.7003 7.5C17.3502 8.5 19.1798 10.25 19.1798 12.25C19.1798 15.3125 15.0789 17.8125 10.0315 17.8125C4.98423 17.8125 0.883286 15.3125 0.883286 12.25C0.883286 10.25 2.64985 8.5 5.29969 7.5L4.41641 3Z" fill="#D1884F"/>
        <path id="Vector_4" d="M7.4448 11.8125C7.4448 12.625 7.00316 13.3125 6.43534 13.3125C5.86751 13.3125 5.42587 12.625 5.42587 11.8125C5.42587 11 5.86751 10.3125 6.43534 10.3125C7.00316 10.3125 7.4448 11 7.4448 11.8125Z" fill="#633001"/>
        <path id="Vector_5" d="M14.4479 11.8125C14.4479 12.625 14.0063 13.3125 13.4385 13.3125C12.8707 13.3125 12.429 12.625 12.429 11.8125C12.429 11 12.8707 10.3125 13.4385 10.3125C14.0063 10.3125 14.4479 11 14.4479 11.8125Z" fill="#633001"/>
    </g>
    <defs>
        <clipPath id="clip0_1_12692">
            <rect width="20" height="20" fill="white"/>
        </clipPath>
    </defs>
</svg>
