<svg width="24" height="24" viewBox="0 0 24 24" fill="none"
    xmlns="http://www.w3.org/2000/svg">
    <g id="Circle-Chart">
        <path id="Vector" d="M8.30005 9.68C8.80005 9.66 9.22996 9.84 9.57996 10.17L12.36 12.81C12.45 12.89 12.61 12.89 12.71 12.8L13.42 12.12C13.24 11.78 13.12 11.4 13.12 11C13.12 9.69 14.19 8.62 15.5 8.62C16.1 8.62 16.66 8.86 17.09 9.25H20.95C21.28 9.25 21.52 8.93 21.41 8.62C20.91 7.22 20.1001 5.97 19.0601 4.94C17.2501 3.12 14.75 2 12 2C9.25 2 6.74994 3.12 4.93994 4.94C3.11994 6.75 2 9.25 2 12C2 12.82 2.10004 13.63 2.29004 14.4C2.38004 14.77 2.83998 14.87 3.09998 14.59L7.06995 10.26C7.38995 9.9 7.83005 9.7 8.30005 9.68Z" fill="#EA9253"/>
        <path id="Vector_2" d="M21.97 11.19C21.95 10.94 21.73 10.75 21.48 10.75H17.84C17.85 10.83 17.88 10.92 17.88 11C17.88 12.31 16.81 13.38 15.5 13.38C15.15 13.38 14.82 13.29 14.52 13.15L13.74 13.89C13.05 14.53 11.99 14.53 11.32 13.89L8.54006 11.25C8.47006 11.19 8.38001 11.18 8.36001 11.18C8.31001 11.18 8.23996 11.2 8.18996 11.26L3.43008 16.45C3.29008 16.61 3.26001 16.84 3.36001 17.02C5.10001 19.99 8.32002 22 12 22C14.75 22 17.2501 20.88 19.0601 19.06C20.8801 17.25 22 14.75 22 12C22 11.73 21.99 11.46 21.97 11.19Z" fill="#EA9253"/>
    </g>
</svg>
