<svg width="24" height="24" viewBox="0 0 24 24" fill="none"
    xmlns="http://www.w3.org/2000/svg">
    <g id="Down">
        <path id="Vector" d="M12 2C6.5 2 2 6.5 2 12C2 17.5 6.5 22 12 22C17.5 22 22 17.5 22 12C22 6.5 17.5 2 12 2ZM16.03 10.78L14.28 12.53C13.99 12.82 13.51 12.82 13.22 12.53L12 11.31L10.3101 13H10.95C11.36 13 11.7 13.34 11.7 13.75C11.7 14.16 11.36 14.5 10.95 14.5H8.5C8.4 14.5 8.29996 14.48 8.20996 14.44C8.02996 14.36 7.88005 14.22 7.80005 14.03C7.76005 13.94 7.73999 13.84 7.73999 13.74V11.3C7.73999 10.89 8.07999 10.55 8.48999 10.55C8.89999 10.55 9.23999 10.89 9.23999 11.3V11.94L11.46 9.72C11.75 9.43 12.23 9.43 12.52 9.72L13.74 10.94L14.96 9.72C15.25 9.43 15.73 9.43 16.02 9.72C16.32 10.01 16.32 10.49 16.03 10.78Z" fill="#DC5638"/>
    </g>
</svg>
