<svg width="24" height="24" viewBox="0 0 24 24" fill="none"
    xmlns="http://www.w3.org/2000/svg">
    <g id="Square-Chart">
        <path id="Vector" d="M17 22H7C4.25 22 2 19.75 2 17V7C2 4.25 4.25 2 7 2H17C19.75 2 22 4.25 22 7V17C22 19.75 19.75 22 17 22Z" stroke="white" stroke-width="1.5" stroke-linecap="round" stroke-linejoin="round"/>
        <path id="Vector_2" d="M17.5 11C17.5 12.1 16.6 13 15.5 13C14.98 13 14.5 12.8 14.15 12.47C13.75 12.1 13.5 11.58 13.5 11C13.5 9.9 14.4 9 15.5 9C16.24 9 16.88 9.4 17.23 10C17.4 10.29 17.5 10.64 17.5 11Z" stroke="white" stroke-width="1.5" stroke-linecap="round" stroke-linejoin="round"/>
        <path id="Vector_3" d="M22 10H17.23" stroke="white" stroke-width="1.5" stroke-linecap="round" stroke-linejoin="round"/>
        <path id="Vector_4" d="M2 17L7.63 10.76C8.01 10.34 8.65006 10.32 9.06006 10.71L11.84 13.35C12.22 13.71 12.83 13.71 13.22 13.35L14.15 12.47" stroke="white" stroke-width="1.5" stroke-linecap="round" stroke-linejoin="round"/>
    </g>
</svg>
