<svg width="62" height="61" viewBox="0 0 62 61" fill="none" xmlns="http://www.w3.org/2000/svg">
<path d="M36.3354 20.2353L20.5668 34.7373L25.6139 40.2252L41.3825 25.7232L36.3354 20.2353Z" fill="#FF7A00"/>
<path d="M8.51702 42.9679L9.02969 43.5253C8.70733 43.589 8.40179 43.7107 8.14611 43.9458C7.38858 44.6425 7.3403 45.8195 8.03587 46.5758L12.7679 51.7211C13.4634 52.4775 14.6404 52.5277 15.3979 51.831C15.6536 51.5959 15.8004 51.3015 15.8908 50.9856L16.4034 51.5431C17.6888 52.9407 19.7856 53.1169 21.2931 52.0438L8.42648 38.0535C7.23126 39.4661 7.23165 41.5702 8.51702 42.9679Z" fill="#FF7A00"/>
<path d="M46.5492 8.62808C46.2936 8.86322 46.1468 9.15753 46.0566 9.47325L45.5439 8.91581C44.2585 7.51817 42.1616 7.34219 40.6543 8.41504L53.5213 22.4058C54.7163 20.993 54.7161 18.8891 53.4307 17.4914L52.9181 16.934C53.2404 16.8703 53.5459 16.7486 53.8014 16.5137C54.559 15.817 54.6072 14.64 53.9117 13.8836L49.1797 8.73834C48.4837 7.98161 47.3068 7.93139 46.5492 8.62808Z" fill="#FF7A00"/>
<path d="M8.57166 29.9549C7.05841 31.3466 6.95972 33.7052 8.35309 35.2203L24.1127 52.3564C25.5061 53.8715 27.865 53.97 29.378 52.5785C30.8931 51.1851 30.992 48.8263 29.5986 47.3112L13.839 30.1751C12.4456 28.66 10.0867 28.5615 8.57166 29.9549Z" fill="#FF7A00"/>
<path d="M32.572 7.88272C31.0569 9.27609 30.9581 11.6349 32.3514 13.15L48.1111 30.2861C49.5045 31.8012 51.8633 31.8997 53.3784 30.5063C54.8916 29.1146 54.9903 26.7559 53.5969 25.2409L37.8373 8.10478C36.4439 6.58971 34.0853 6.49102 32.572 7.88272Z" fill="#FF7A00"/>
</svg>
