<svg width="32" height="32" viewBox="0 0 32 32" fill="none" xmlns="http://www.w3.org/2000/svg">
<g clip-path="url(#clip0_255_1127)">
<path d="M16 0.799805C7.61823 0.799805 0.799988 7.61943 0.799988 15.9998C0.799988 24.3802 7.61823 31.1998 16 31.1998C24.3817 31.1998 31.2 24.3802 31.2 15.9998C31.2 7.61943 24.3817 0.799805 16 0.799805ZM16 29.7517C8.41684 29.7517 2.24809 23.582 2.24809 15.9998C2.24809 8.41762 8.41684 2.24791 16 2.24791C23.5831 2.24791 29.7519 8.41762 29.7519 15.9998C29.7519 23.582 23.5831 29.7517 16 29.7517Z" fill="#FF7A00"/>
<path d="M20.161 14.5518H11.8391V17.448H20.161V14.5518Z" fill="#FF7A00"/>
<path d="M6.22954 13.7365V14.0307C6.12064 13.9642 6.00128 13.9186 5.86634 13.9186C5.46656 13.9186 5.14325 14.2424 5.14325 14.6416V17.357C5.14325 17.7562 5.46656 18.08 5.86634 18.08C6.00128 18.08 6.12064 18.0344 6.22954 17.9679V18.2621C6.22954 18.9997 6.78272 19.6014 7.49589 19.691V12.3076C6.78272 12.3972 6.22954 12.9989 6.22954 13.7365Z" fill="#FF7A00"/>
<path d="M26.1337 13.9186C25.9987 13.9186 25.8794 13.9642 25.7706 14.0307V13.7365C25.7706 12.9989 25.2173 12.3972 24.5042 12.3076V19.6912C25.2174 19.6015 25.7706 18.9999 25.7706 18.2623V17.9681C25.8795 18.0347 25.9988 18.0802 26.1337 18.0802C26.5334 18.0802 26.8567 17.7564 26.8567 17.3572V14.6418C26.8567 14.2424 26.5334 13.9186 26.1337 13.9186Z" fill="#FF7A00"/>
<path d="M9.66698 10.0303C8.86837 10.0303 8.21994 10.6787 8.21994 11.4783V20.5218C8.21994 21.3214 8.86847 21.9698 9.66698 21.9698C10.4666 21.9698 11.1151 21.3214 11.1151 20.5218V11.4783C11.1151 10.6787 10.4666 10.0303 9.66698 10.0303Z" fill="#FF7A00"/>
<path d="M22.333 10.0303C21.5334 10.0303 20.8849 10.6787 20.8849 11.4783V20.5218C20.8849 21.3214 21.5334 21.9698 22.333 21.9698C23.1316 21.9698 23.78 21.3214 23.78 20.5218V11.4783C23.78 10.6787 23.1316 10.0303 22.333 10.0303Z" fill="#FF7A00"/>
</g>
<defs>
<clipPath id="clip0_255_1127">
<rect width="32" height="32" fill="white"/>
</clipPath>
</defs>
</svg>
