<svg width="20" height="20" viewBox="0 0 20 20" fill="none"
    xmlns="http://www.w3.org/2000/svg">
    <g id="Group 56">
        <ellipse id="Ellipse 192" cx="10.0373" cy="9.99999" rx="9.54604" ry="9.58333" fill="white"/>
        <path id="Vector" d="M9.9627 0.416656C8.07468 0.416656 6.22905 0.978709 4.65921 2.03174C3.08937 3.08477 1.86583 4.58148 1.14331 6.33261C0.420793 8.08373 0.231749 10.0106 0.600085 11.8696C0.968422 13.7286 1.87759 15.4362 3.21263 16.7764C4.54767 18.1167 6.24861 19.0294 8.10036 19.3992C9.95212 19.769 11.8715 19.5792 13.6158 18.8538C15.3601 18.1285 16.851 16.9002 17.8999 15.3242C18.9489 13.7482 19.5087 11.8954 19.5087 9.99999C19.5124 8.74514 19.2698 7.50186 18.7948 6.34114C18.3199 5.18041 17.6218 4.12497 16.7405 3.23507C15.8592 2.34518 14.812 1.63825 13.6586 1.15467C12.5051 0.671085 11.2681 0.420308 10.0182 0.416656H9.9627ZM10.1245 10.3248L9.1306 13.6895H14.4468C14.482 13.6882 14.5171 13.694 14.5501 13.7063C14.5831 13.7187 14.6134 13.7375 14.6391 13.7617C14.6649 13.7858 14.6857 13.8148 14.7003 13.847C14.7149 13.8792 14.723 13.914 14.7242 13.9493V14.0375L14.2619 15.6386C14.2415 15.7143 14.1961 15.7808 14.1331 15.8272C14.0701 15.8736 13.9932 15.8971 13.9152 15.8939H5.77909L7.14281 11.2298L5.61729 11.6939L5.964 10.6265L7.48952 10.1624L9.40797 3.61884C9.42909 3.54354 9.4747 3.47751 9.53753 3.43126C9.60036 3.385 9.6768 3.36118 9.75468 3.36359H11.8118C11.847 3.36235 11.8821 3.36809 11.9151 3.38048C11.9482 3.39288 11.9784 3.41168 12.0042 3.43582C12.0299 3.45995 12.0507 3.48895 12.0653 3.52115C12.0799 3.55335 12.088 3.58812 12.0892 3.62348V3.71165L10.4712 9.23425L11.9967 8.77017L11.6731 9.88397L10.1245 10.3248Z" fill="#345D9D"/>
    </g>
</svg>
