<svg width="21" height="20" viewBox="0 0 21 20" fill="none" xmlns="http://www.w3.org/2000/svg">
<g id="Cloud with Moon">
<path id="Vector" d="M15.0268 11.9985C13.4472 11.7264 11.9903 10.995 10.8492 9.90146C9.70812 8.80789 8.93679 7.40376 8.63763 5.87534C8.42582 4.7794 8.47179 3.65125 8.77202 2.57492C8.81433 2.42168 8.81174 2.26005 8.76464 2.10813C8.71754 1.95622 8.62777 1.82004 8.50534 1.71483C8.3829 1.60963 8.23265 1.53957 8.07146 1.51251C7.91027 1.48545 7.74454 1.50246 7.59276 1.56163C5.68197 2.21441 4.05583 3.47607 2.97986 5.14063C1.90389 6.80518 1.44162 8.77429 1.66858 10.7265C1.89553 12.6786 2.79831 14.4985 4.22946 15.889C5.6606 17.2794 7.53559 18.1584 9.54829 18.3822C11.5991 18.7084 13.7034 18.3524 15.5191 17.3722C17.3349 16.3919 18.7555 14.845 19.5499 12.9828C19.6109 12.8356 19.6275 12.6746 19.5979 12.5185C19.5684 12.3624 19.4937 12.2177 19.3828 12.101C19.2719 11.9844 19.1292 11.9006 18.9712 11.8594C18.8131 11.8182 18.6463 11.8212 18.49 11.8682C17.3586 12.1519 16.1775 12.1963 15.0268 11.9985V11.9985Z" stroke="white" stroke-opacity="0.5" stroke-width="1.5" stroke-miterlimit="10"/>
</g>
</svg>
