<svg width="24" height="24" viewBox="0 0 24 24" fill="none"
    xmlns="http://www.w3.org/2000/svg">
    <g id="Up">
        <path id="Vector" d="M12 2C6.5 2 2 6.5 2 12C2 17.5 6.5 22 12 22C17.5 22 22 17.5 22 12C22 6.5 17.5 2 12 2ZM16.25 12.7C16.25 13.11 15.91 13.45 15.5 13.45C15.09 13.45 14.75 13.11 14.75 12.7V12.06L12.53 14.28C12.24 14.57 11.76 14.57 11.47 14.28L10.25 13.06L9.03003 14.28C8.88003 14.43 8.69 14.5 8.5 14.5C8.31 14.5 8.11997 14.43 7.96997 14.28C7.67997 13.99 7.67997 13.51 7.96997 13.22L9.71997 11.47C10.01 11.18 10.49 11.18 10.78 11.47L12 12.69L13.6899 11H13.05C12.64 11 12.3 10.66 12.3 10.25C12.3 9.84 12.64 9.5 13.05 9.5H15.5C15.6 9.5 15.69 9.52 15.79 9.56C15.97 9.64 16.12 9.78 16.2 9.97C16.24 10.06 16.26 10.16 16.26 10.26V12.7H16.25Z" fill="#3AB983"/>
    </g>
</svg>
