<svg width="16" height="16" viewBox="0 0 16 16" fill="none"
    xmlns="http://www.w3.org/2000/svg">
    <g id="Filter" clip-path="url(#clip0_1_12617)">
        <path id="Vector" d="M4.09997 2H11.9C12.1533 2 12.4066 2.06669 12.6266 2.18669C12.84 2.31335 13.0266 2.48666 13.1533 2.69999C13.2733 2.91333 13.34 3.15332 13.3333 3.39998C13.3266 3.64665 13.26 3.88668 13.1266 4.09334L10.6666 7.97998C10.3266 8.51998 10.14 9.13998 10.14 9.77332V12.52C10.14 13.8134 9.19331 14.34 8.02664 13.7333L6.60665 12.9867C6.39331 12.86 6.20665 12.68 6.07331 12.4667C5.94665 12.2533 5.87331 12.02 5.85997 11.7733V9.77332C5.85997 9.13998 5.67998 8.51998 5.33331 7.97998L2.87998 4.09334C2.74665 3.88668 2.67997 3.64665 2.67331 3.39998C2.66664 3.15332 2.73331 2.91333 2.85331 2.69999C2.97998 2.48666 3.15998 2.30669 3.37998 2.18669C3.59998 2.06002 3.85331 2 4.10665 2H4.09997Z" stroke="white" stroke-width="1.5" stroke-linecap="round" stroke-linejoin="round"/>
    </g>
    <defs>
        <clipPath id="clip0_1_12617">
            <rect width="16" height="16" fill="white"/>
        </clipPath>
    </defs>
</svg>
